#!OML:ASF E:\id_vita\Project 1\Capture day 1\Session 1\Female.ASF
:FULLY-SPECIFIED
:DEGREES
863
root 6.53346 14.2589 -2.00727 194.565 -62.1222 -151.941
lowerback 14.4002 3.38639 -7.29778
upperback 7.60404 2.77766 -3.57849
thorax -0.185693 0.972423 -0.0554424
lowerneck -7.47841 5.90703 -2.49006
upperneck -27.1284 7.60586 3.01276
head -7.37251 2.96656 1.21184
rclavicle 2.8625e-014 -2.14687e-014
rhumerus 23.1809 47.7433 -89.4842
rradius 82.3
rwrist -28.1614
rhand -33.9205 -6.56236
rfingers 7.12502
rthumb -7.10287 -36.4232
lclavicle 2.8625e-014 -2.14687e-014
lhumerus 73.3314 9.16432 107.735
lradius 12.2513
lwrist -23.4128
lhand 8.09662 43.7659
lfingers 7.12502
lthumb 33.3189 70.6983
rfemur -68.6867 11.5057 41.7149
rtibia 65.7822
rfoot -21.8662 -23.2948
rtoes -5.52619
lfemur -75.6147 7.71901 17.8738
ltibia 19.9752
lfoot -22.6437 43.1469
ltoes 23.3208
864
root 6.60831 14.2633 -2.00203 194.446 -61.9617 -152.06
lowerback 14.5874 3.4177 -7.32925
upperback 7.57142 2.7927 -3.52117
thorax -0.324527 0.981429 0.0113996
lowerneck -7.32276 5.94171 -2.69169
upperneck -27.15 7.69826 3.18075
head -7.42351 3.01781 1.29181
rclavicle 6.04305e-014 4.21423e-014
rhumerus 23.0388 47.8539 -89.6555
rradius 82.1424
rwrist -28.1101
rhand -33.8495 -6.08946
rfingers 7.12502
rthumb -7.03424 -35.9526
lclavicle 6.04305e-014 4.21423e-014
lhumerus 73.5424 9.53888 108.808
lradius 11.8991
lwrist -24.3068
lhand 7.85389 43.6221
lfingers 7.12502
lthumb 33.0881 70.6037
rfemur -68.6285 11.3738 41.9646
rtibia 65.657
rfoot -21.7529 -22.9216
rtoes -5.34744
lfemur -75.4156 7.28876 18.8612
ltibia 20.4083
lfoot -23.1476 43.4019
ltoes 23.3161
865
root 6.68487 14.2639 -1.99761 194.584 -61.777 -152.372
lowerback 14.5603 3.47966 -7.50002
upperback 7.6494 2.85186 -3.47704
thorax -0.239181 0.997958 0.14524
lowerneck -7.36385 6.05059 -2.48593
upperneck -27.1284 7.77536 2.82457
head -7.38987 3.06469 1.13743
rclavicle 3.97569e-014 -4.45278e-014
rhumerus 23.1945 47.9459 -89.4916
rradius 82.042
rwrist -27.9856
rhand -34.043 -5.75256
rfingers 7.12502
rthumb -7.22108 -35.6094
lclavicle 3.97569e-014 -4.45278e-014
lhumerus 73.773 9.75501 109.619
lradius 11.7461
lwrist -24.7555
lhand 8.00831 43.5481
lfingers 7.12502
lthumb 33.2349 70.4984
rfemur -68.6957 11.2675 42.1184
rtibia 65.5448
rfoot -21.6396 -22.5135
rtoes -5.05011
lfemur -75.435 6.92918 19.7316
ltibia 20.8703
lfoot -21.9938 44.0536
ltoes 21.3477
866
root 6.75938 14.2612 -1.98696 194.673 -61.8125 -152.52
lowerback 14.5423 3.39052 -7.32847
upperback 7.73101 2.7561 -3.52566
thorax -0.1289 0.949303 0.0163606
lowerneck -7.67299 6.15558 -2.32888
upperneck -27.0573 7.87014 2.64016
head -7.30467 3.10904 1.05676
rclavicle 2.38542e-014 -3.65764e-014
rhumerus 23.3805 48.0299 -89.501
rradius 82.0938
rwrist -27.9159
rhand -34.127 -6.14209
rfingers 7.12502
rthumb -7.30217 -35.9961
lclavicle 2.38542e-014 -3.65764e-014
lhumerus 73.9203 9.87635 109.819
lradius 11.7767
lwrist -24.928
lhand 8.09603 43.5068
lfingers 7.12502
lthumb 33.3183 70.4393
rfemur -68.9406 11.0388 42.338
rtibia 65.4365
rfoot -21.5163 -22.1109
rtoes -4.40493
lfemur -75.7991 6.45859 20.6808
ltibia 21.5115
lfoot -20.1787 44.7838
ltoes 18.963
867
root 6.83232 14.2634 -1.98137 194.527 -61.776 -152.524
lowerback 14.518 3.35869 -7.18927
upperback 7.8671 2.72956 -3.54516
thorax 0.0359509 0.929015 -0.0738986
lowerneck -8.48908 6.10352 -2.65623
upperneck -26.588 7.84556 2.97774
head -7.04009 3.11787 1.25039
rclavicle -1.59028e-014 1.03368e-014
rhumerus 23.3888 48.0356 -89.6839
rradius 82.1855
rwrist -27.8271
rhand -33.8884 -6.82675
rfingers 7.12502
rthumb -7.07185 -36.6886
lclavicle -1.59028e-014 1.03368e-014
lhumerus 73.9445 9.82148 109.511
lradius 11.9275
lwrist -24.8504
lhand 8.1247 43.9326
lfingers 7.12502
lthumb 33.3456 70.8592
rfemur -68.9907 10.8859 42.6074
rtibia 65.3118
rfoot -21.323 -21.7722
rtoes -4.12736
lfemur -76.1367 5.9114 21.6447
ltibia 22.3764
lfoot -17.0127 45.8428
ltoes 15.6155
868
root 6.90688 14.2742 -1.98758 194.456 -61.4686 -152.659
lowerback 14.5388 3.51854 -7.45403
upperback 7.82025 2.9023 -3.4663
thorax -0.0478785 1.00814 0.127095
lowerneck -8.48468 6.1192 -2.25377
upperneck -26.2899 7.7586 2.44218
head -6.89943 3.09574 1.01157
rclavicle 1.25632e-013 7.39479e-014
rhumerus 22.9193 47.9862 -90.0093
rradius 82.1202
rwrist -27.6562
rhand -33.6873 -7.11438
rfingers 7.12502
rthumb -6.87774 -36.9827
lclavicle 1.25632e-013 7.39479e-014
lhumerus 73.6637 9.78196 109.543
lradius 12.0874
lwrist -24.9155
lhand 8.54994 44.8319
lfingers 7.12502
lthumb 33.7497 71.6708
rfemur -68.8722 11.018 42.7543
rtibia 65.21
rfoot -21.2337 -21.4069
rtoes -3.95371
lfemur -76.2859 5.52207 22.5004
ltibia 23.4508
lfoot -14.2154 46.6516
ltoes 12.3827
869
root 6.97639 14.2802 -1.98806 194.49 -61.3516 -152.821
lowerback 14.5529 3.58539 -7.50344
upperback 7.64805 2.98985 -3.4055
thorax -0.248491 1.06396 0.201049
lowerneck -7.85404 6.09187 -2.24025
upperneck -26.3308 7.71793 2.27314
head -7.00571 3.09732 0.934192
rclavicle -7.31528e-014 -6.99722e-014
rhumerus 22.4504 48.0538 -90.2367
rradius 81.9478
rwrist -27.7126
rhand -33.6721 -7.33322
rfingers 7.12502
rthumb -6.86308 -37.202
lclavicle -7.31528e-014 -6.99722e-014
lhumerus 73.4241 9.99643 110.596
lradius 11.9562
lwrist -25.7818
lhand 8.98778 45.1003
lfingers 7.12502
lthumb 34.1657 71.8472
rfemur -68.912 11.0629 42.8397
rtibia 65.1054
rfoot -21.2081 -21.0358
rtoes -3.30114
lfemur -76.7241 5.06141 23.3899
ltibia 24.7241
lfoot -12.8474 47.192
ltoes 9.79558
870
root 7.03692 14.2585 -1.97031 194.668 -61.7527 -152.847
lowerback 14.4293 3.35146 -7.01159
upperback 7.47077 2.77993 -3.39941
thorax -0.341274 0.990995 -0.0294602
lowerneck -7.48401 6.08988 -2.19759
upperneck -26.2709 7.72929 2.24644
head -7.04257 3.11014 0.905574
rclavicle 6.36111e-015 3.18055e-014
rhumerus 22.2089 48.2558 -90.3929
rradius 81.7958
rwrist -27.8875
rhand -33.8458 -7.75262
rfingers 7.12502
rthumb -7.03072 -37.6158
lclavicle 6.36111e-015 3.18055e-014
lhumerus 73.3732 10.4815 112.209
lradius 11.5584
lwrist -27.1053
lhand 8.45856 44.04
lfingers 7.12502
lthumb 33.6629 70.898
rfemur -69.5051 10.7824 42.9664
rtibia 65.0735
rfoot -21.0215 -20.7786
rtoes -2.83761
lfemur -78.4694 7.03456 18.6726
ltibia 26.066
lfoot -10.7349 41.7128
ltoes 7.15569
871
root 7.1019 14.2713 -1.97452 194.39 -61.7888 -152.965
lowerback 14.7295 3.37222 -7.04114
upperback 7.51808 2.76364 -3.38505
thorax -0.451196 0.979002 -0.00721487
lowerneck -7.54991 6.1331 -1.8168
upperneck -26.0174 7.73044 1.95688
head -6.9191 3.10919 0.75126
rclavicle -1.59028e-014 -3.02153e-014
rhumerus 21.9395 48.3089 -90.7145
rradius 81.7001
rwrist -27.7561
rhand -33.8407 -8.06649
rfingers 7.12502
rthumb -7.02583 -37.9299
lclavicle -1.59028e-014 -3.02153e-014
lhumerus 73.123 10.5372 112.209
lradius 11.7437
lwrist -27.7255
lhand 8.87099 44.3743
lfingers 7.12502
lthumb 34.0547 71.1459
rfemur -69.2234 10.7072 43.0739
rtibia 64.9099
rfoot -20.8754 -20.7645
rtoes -2.49683
lfemur -79.3768 8.50337 14.6495
ltibia 27.4302
lfoot -9.18217 37.0415
ltoes 5.39738
872
root 7.16801 14.2904 -1.9757 194.636 -61.8273 -153.516
lowerback 14.8858 3.40024 -7.25561
upperback 7.54279 2.74893 -3.39731
thorax -0.514182 0.964089 0.0947627
lowerneck -7.44189 6.1921 -1.56572
upperneck -25.9908 7.75333 1.63334
head -6.90467 3.12556 0.600123
rclavicle -4.45278e-014 -7.95139e-014
rhumerus 21.3971 48.2143 -91.0813
rradius 81.7476
rwrist -27.5114
rhand -33.8103 -8.12544
rfingers 7.12502
rthumb -6.99645 -37.9898
lclavicle -4.45278e-014 -7.95139e-014
lhumerus 72.8918 10.5578 112.386
lradius 11.7485
lwrist -27.9433
lhand 8.68302 44.3381
lfingers 7.12502
lthumb 33.8762 71.1492
rfemur -69.1382 10.59 42.9494
rtibia 64.7051
rfoot -20.8417 -20.6096
rtoes -1.66928
lfemur -80.1501 9.29584 11.9213
ltibia 28.762
lfoot -8.4671 33.7834
ltoes 4.72904
